<mxfile host="65bd71144e">
    <diagram id="ZthKX7labWR-DmVb8NCq" name="Страница 1">
        <mxGraphModel dx="1253" dy="1027" grid="1" gridSize="10" guides="1" tooltips="1" connect="1" arrows="1" fold="1" page="1" pageScale="1" pageWidth="2000" pageHeight="2000" math="0" shadow="0">
            <root>
                <mxCell id="0"/>
                <mxCell id="1" parent="0"/>
                <mxCell id="2" value="Работа администрации" style="rounded=0;whiteSpace=wrap;html=1;" parent="1" vertex="1">
                    <mxGeometry x="390" y="495" width="120" height="60" as="geometry"/>
                </mxCell>
                <mxCell id="3" value="" style="edgeStyle=none;html=1;entryX=0.5;entryY=0;entryDx=0;entryDy=0;" parent="1" target="2" edge="1">
                    <mxGeometry relative="1" as="geometry">
                        <mxPoint x="970" y="600" as="targetPoint"/>
                        <Array as="points">
                            <mxPoint x="660" y="450"/>
                            <mxPoint x="450" y="450"/>
                        </Array>
                        <mxPoint x="660" y="670" as="sourcePoint"/>
                    </mxGeometry>
                </mxCell>
                <mxCell id="4" value="Рекомендации по кандидату на работу" style="edgeLabel;html=1;align=center;verticalAlign=middle;resizable=0;points=[];" parent="3" vertex="1" connectable="0">
                    <mxGeometry x="0.3775" y="1" relative="1" as="geometry">
                        <mxPoint x="6" as="offset"/>
                    </mxGeometry>
                </mxCell>
                <mxCell id="5" value="Работа отдела кадров" style="rounded=0;whiteSpace=wrap;html=1;" parent="1" vertex="1">
                    <mxGeometry x="560" y="670" width="120" height="60" as="geometry"/>
                </mxCell>
                <mxCell id="6" value="Распоряжение о найме" style="endArrow=classic;html=1;rounded=1;exitX=1;exitY=0.75;exitDx=0;exitDy=0;entryX=0.5;entryY=0;entryDx=0;entryDy=0;labelPosition=center;verticalLabelPosition=top;align=center;verticalAlign=bottom;" parent="1" source="2" target="5" edge="1">
                    <mxGeometry x="0.8333" y="-40" width="50" height="50" relative="1" as="geometry">
                        <mxPoint x="790" y="640" as="sourcePoint"/>
                        <mxPoint x="840" y="590" as="targetPoint"/>
                        <Array as="points">
                            <mxPoint x="620" y="540"/>
                        </Array>
                        <mxPoint as="offset"/>
                    </mxGeometry>
                </mxCell>
                <mxCell id="7" value="" style="endArrow=classic;html=1;rounded=1;entryX=0.25;entryY=1;entryDx=0;entryDy=0;jumpStyle=arc;" parent="1" target="2" edge="1">
                    <mxGeometry width="50" height="50" relative="1" as="geometry">
                        <mxPoint x="840" y="1030" as="sourcePoint"/>
                        <mxPoint x="840" y="710" as="targetPoint"/>
                        <Array as="points">
                            <mxPoint x="840" y="900"/>
                            <mxPoint x="420" y="900"/>
                        </Array>
                    </mxGeometry>
                </mxCell>
                <mxCell id="8" value="" style="endArrow=classic;html=1;rounded=0;entryX=0.5;entryY=1;entryDx=0;entryDy=0;" parent="1" edge="1" target="5">
                    <mxGeometry width="50" height="50" relative="1" as="geometry">
                        <mxPoint x="620" y="900" as="sourcePoint"/>
                        <mxPoint x="840" y="710" as="targetPoint"/>
                    </mxGeometry>
                </mxCell>
                <mxCell id="10" value="Администрация" style="text;html=1;strokeColor=none;fillColor=none;align=center;verticalAlign=middle;whiteSpace=wrap;rounded=0;" parent="1" vertex="1">
                    <mxGeometry x="440" y="770" width="60" height="30" as="geometry"/>
                </mxCell>
                <mxCell id="11" value="Сотрудники отдела кадров" style="text;html=1;strokeColor=none;fillColor=none;align=center;verticalAlign=middle;whiteSpace=wrap;rounded=0;" parent="1" vertex="1">
                    <mxGeometry x="630" y="790" width="60" height="30" as="geometry"/>
                </mxCell>
                <mxCell id="12" value="Работа отдела комплектации" style="rounded=0;whiteSpace=wrap;html=1;" parent="1" vertex="1">
                    <mxGeometry x="1130" y="870" width="120" height="60" as="geometry"/>
                </mxCell>
                <mxCell id="13" value="Актуальная информация&amp;nbsp;&lt;br&gt;о фонде" style="endArrow=classic;html=1;labelPosition=right;verticalLabelPosition=top;align=left;verticalAlign=bottom;exitX=0.75;exitY=0;exitDx=0;exitDy=0;entryX=0.904;entryY=1.028;entryDx=0;entryDy=0;entryPerimeter=0;strokeColor=default;rounded=1;" parent="1" source="12" edge="1" target="17">
                    <mxGeometry x="-0.6757" y="20" width="50" height="50" relative="1" as="geometry">
                        <mxPoint x="1200" y="770" as="sourcePoint"/>
                        <mxPoint x="1110" y="690" as="targetPoint"/>
                        <Array as="points">
                            <mxPoint x="1220" y="760"/>
                            <mxPoint x="1060" y="760"/>
                        </Array>
                        <mxPoint as="offset"/>
                    </mxGeometry>
                </mxCell>
                <mxCell id="14" value="" style="endArrow=classic;html=1;rounded=0;entryX=0;entryY=0.5;entryDx=0;entryDy=0;shadow=0;" parent="1" target="12" edge="1">
                    <mxGeometry width="50" height="50" relative="1" as="geometry">
                        <mxPoint x="840" y="900" as="sourcePoint"/>
                        <mxPoint x="1050" y="770" as="targetPoint"/>
                        <Array as="points">
                            <mxPoint x="1110" y="900"/>
                        </Array>
                    </mxGeometry>
                </mxCell>
                <mxCell id="15" value="Работники отдела комплектации и учёта фонда" style="text;html=1;strokeColor=none;fillColor=none;align=center;verticalAlign=middle;whiteSpace=wrap;rounded=0;" parent="1" vertex="1">
                    <mxGeometry x="990" y="910" width="120" height="30" as="geometry"/>
                </mxCell>
                <mxCell id="16" value="Информация о потребности книг и их цене" style="endArrow=classic;html=1;rounded=1;entryX=-0.016;entryY=0.663;entryDx=0;entryDy=0;entryPerimeter=0;jumpStyle=arc;exitX=0.112;exitY=1.017;exitDx=0;exitDy=0;exitPerimeter=0;" parent="1" source="12" target="2" edge="1">
                    <mxGeometry x="0.0045" y="10" width="50" height="50" relative="1" as="geometry">
                        <mxPoint x="1210" y="940" as="sourcePoint"/>
                        <mxPoint x="980" y="770" as="targetPoint"/>
                        <Array as="points">
                            <mxPoint x="1143" y="990"/>
                            <mxPoint x="350" y="990"/>
                            <mxPoint x="350" y="820"/>
                            <mxPoint x="350" y="535"/>
                        </Array>
                        <mxPoint as="offset"/>
                    </mxGeometry>
                </mxCell>
                <mxCell id="17" value="Работа отдела обслуживания" style="rounded=0;whiteSpace=wrap;html=1;" parent="1" vertex="1">
                    <mxGeometry x="950" y="660" width="120" height="60" as="geometry"/>
                </mxCell>
                <mxCell id="18" value="Работники&lt;br&gt;отдела обслуживания" style="endArrow=classic;html=1;rounded=0;entryX=0.464;entryY=1.052;entryDx=0;entryDy=0;entryPerimeter=0;labelPosition=left;verticalLabelPosition=middle;align=right;verticalAlign=middle;" parent="1" target="17" edge="1">
                    <mxGeometry width="50" height="50" relative="1" as="geometry">
                        <mxPoint x="1006" y="900" as="sourcePoint"/>
                        <mxPoint x="920" y="800" as="targetPoint"/>
                    </mxGeometry>
                </mxCell>
                <mxCell id="25" style="edgeStyle=none;html=1;entryX=0.25;entryY=0;entryDx=0;entryDy=0;" edge="1" parent="1" target="17">
                    <mxGeometry relative="1" as="geometry">
                        <mxPoint x="980" y="450" as="sourcePoint"/>
                    </mxGeometry>
                </mxCell>
                <mxCell id="44" value="Возврат&lt;br&gt;литературы" style="edgeLabel;html=1;align=center;verticalAlign=middle;resizable=0;points=[];" vertex="1" connectable="0" parent="25">
                    <mxGeometry x="-0.3409" y="-1" relative="1" as="geometry">
                        <mxPoint x="6" y="51" as="offset"/>
                    </mxGeometry>
                </mxCell>
                <mxCell id="72" value="Запрос об&lt;br&gt;информации о&lt;br&gt;литературе" style="edgeLabel;html=1;align=center;verticalAlign=middle;resizable=0;points=[];" vertex="1" connectable="0" parent="25">
                    <mxGeometry x="0.5055" y="1" relative="1" as="geometry">
                        <mxPoint x="9" y="2" as="offset"/>
                    </mxGeometry>
                </mxCell>
                <mxCell id="19" value="Новые читатели" style="shape=umlActor;verticalLabelPosition=bottom;verticalAlign=top;html=1;outlineConnect=0;" vertex="1" parent="1">
                    <mxGeometry x="870" y="380" width="30" height="60" as="geometry"/>
                </mxCell>
                <mxCell id="20" value="Читатели" style="shape=umlActor;verticalLabelPosition=bottom;verticalAlign=top;html=1;outlineConnect=0;" vertex="1" parent="1">
                    <mxGeometry x="970" y="370" width="30" height="60" as="geometry"/>
                </mxCell>
                <mxCell id="41" value="" style="endArrow=classic;html=1;exitX=1;exitY=0.75;exitDx=0;exitDy=0;" edge="1" parent="1" source="17">
                    <mxGeometry width="50" height="50" relative="1" as="geometry">
                        <mxPoint x="1140" y="640" as="sourcePoint"/>
                        <mxPoint x="1010" y="400" as="targetPoint"/>
                        <Array as="points">
                            <mxPoint x="1110" y="705"/>
                            <mxPoint x="1110" y="400"/>
                        </Array>
                    </mxGeometry>
                </mxCell>
                <mxCell id="42" value="Оповещение&amp;nbsp; о&lt;br style=&quot;border-color: var(--border-color);&quot;&gt;прочрочивании" style="edgeLabel;html=1;align=center;verticalAlign=middle;resizable=0;points=[];" vertex="1" connectable="0" parent="41">
                    <mxGeometry x="0.2674" y="-1" relative="1" as="geometry">
                        <mxPoint x="-1" y="7" as="offset"/>
                    </mxGeometry>
                </mxCell>
                <mxCell id="68" value="Выдача &lt;br&gt;литературы" style="edgeLabel;html=1;align=center;verticalAlign=middle;resizable=0;points=[];" vertex="1" connectable="0" parent="41">
                    <mxGeometry x="0.0442" relative="1" as="geometry">
                        <mxPoint as="offset"/>
                    </mxGeometry>
                </mxCell>
                <mxCell id="69" value="Регистрация" style="edgeLabel;html=1;align=center;verticalAlign=middle;resizable=0;points=[];" vertex="1" connectable="0" parent="41">
                    <mxGeometry x="-0.1549" relative="1" as="geometry">
                        <mxPoint as="offset"/>
                    </mxGeometry>
                </mxCell>
                <mxCell id="49" value="" style="endArrow=classic;html=1;entryX=0;entryY=0.167;entryDx=0;entryDy=0;entryPerimeter=0;" edge="1" parent="1" target="17">
                    <mxGeometry width="50" height="50" relative="1" as="geometry">
                        <mxPoint x="880" y="470" as="sourcePoint"/>
                        <mxPoint x="930" y="670" as="targetPoint"/>
                        <Array as="points">
                            <mxPoint x="880" y="580"/>
                            <mxPoint x="880" y="650"/>
                        </Array>
                    </mxGeometry>
                </mxCell>
                <mxCell id="50" value="Документы" style="edgeLabel;html=1;align=center;verticalAlign=middle;resizable=0;points=[];" vertex="1" connectable="0" parent="49">
                    <mxGeometry x="-0.3388" relative="1" as="geometry">
                        <mxPoint y="-46" as="offset"/>
                    </mxGeometry>
                </mxCell>
                <mxCell id="52" value="Запросы о&lt;br&gt;наличии и&lt;br&gt;местонахождении&lt;br&gt;литературы" style="endArrow=classic;html=1;entryX=0;entryY=0.25;entryDx=0;entryDy=0;exitX=0.75;exitY=1;exitDx=0;exitDy=0;" edge="1" parent="1" source="17" target="12">
                    <mxGeometry x="-0.1373" y="20" width="50" height="50" relative="1" as="geometry">
                        <mxPoint x="1030" y="720" as="sourcePoint"/>
                        <mxPoint x="1030" y="758" as="targetPoint"/>
                        <Array as="points">
                            <mxPoint x="1040" y="885"/>
                        </Array>
                        <mxPoint as="offset"/>
                    </mxGeometry>
                </mxCell>
                <mxCell id="53" value="" style="endArrow=classic;html=1;sketch=0;jumpStyle=arc;" edge="1" parent="1" source="5">
                    <mxGeometry width="50" height="50" relative="1" as="geometry">
                        <mxPoint x="720" y="750" as="sourcePoint"/>
                        <mxPoint x="950" y="700" as="targetPoint"/>
                    </mxGeometry>
                </mxCell>
                <mxCell id="54" value="Информация&lt;br&gt;о библиотекарях" style="edgeLabel;html=1;align=center;verticalAlign=middle;resizable=0;points=[];" vertex="1" connectable="0" parent="53">
                    <mxGeometry x="0.0653" y="-1" relative="1" as="geometry">
                        <mxPoint as="offset"/>
                    </mxGeometry>
                </mxCell>
                <mxCell id="58" value="Сотрудники" style="shape=umlActor;verticalLabelPosition=bottom;verticalAlign=top;html=1;outlineConnect=0;" vertex="1" parent="1">
                    <mxGeometry x="830" y="1040" width="30" height="60" as="geometry"/>
                </mxCell>
                <mxCell id="61" value="Кандидаты &lt;br&gt;на работу" style="shape=umlActor;verticalLabelPosition=bottom;verticalAlign=top;html=1;outlineConnect=0;" vertex="1" parent="1">
                    <mxGeometry x="660" y="310" width="30" height="60" as="geometry"/>
                </mxCell>
                <mxCell id="62" value="" style="endArrow=classic;html=1;sketch=0;strokeColor=default;jumpStyle=arc;" edge="1" parent="1">
                    <mxGeometry width="50" height="50" relative="1" as="geometry">
                        <mxPoint x="995" y="450" as="sourcePoint"/>
                        <mxPoint x="980" y="500" as="targetPoint"/>
                        <Array as="points">
                            <mxPoint x="995" y="500"/>
                        </Array>
                    </mxGeometry>
                </mxCell>
                <mxCell id="63" value="Документы" style="edgeLabel;html=1;align=center;verticalAlign=middle;resizable=0;points=[];" vertex="1" connectable="0" parent="62">
                    <mxGeometry x="-0.11" relative="1" as="geometry">
                        <mxPoint x="-10" y="61" as="offset"/>
                    </mxGeometry>
                </mxCell>
                <mxCell id="65" value="" style="endArrow=classic;html=1;sketch=0;strokeColor=default;jumpStyle=arc;exitX=1;exitY=0.75;exitDx=0;exitDy=0;" edge="1" parent="1" source="5">
                    <mxGeometry width="50" height="50" relative="1" as="geometry">
                        <mxPoint x="730" y="880" as="sourcePoint"/>
                        <mxPoint x="820" y="1060" as="targetPoint"/>
                        <Array as="points">
                            <mxPoint x="750" y="715"/>
                            <mxPoint x="750" y="1060"/>
                        </Array>
                    </mxGeometry>
                </mxCell>
                <mxCell id="77" value="Зарплата" style="edgeLabel;html=1;align=center;verticalAlign=middle;resizable=0;points=[];" vertex="1" connectable="0" parent="65">
                    <mxGeometry x="-0.3134" y="1" relative="1" as="geometry">
                        <mxPoint as="offset"/>
                    </mxGeometry>
                </mxCell>
                <mxCell id="89" value="Увольнение" style="edgeLabel;html=1;align=center;verticalAlign=middle;resizable=0;points=[];" vertex="1" connectable="0" parent="65">
                    <mxGeometry x="-0.4409" y="-1" relative="1" as="geometry">
                        <mxPoint as="offset"/>
                    </mxGeometry>
                </mxCell>
                <mxCell id="91" value="Назначение" style="edgeLabel;html=1;align=center;verticalAlign=middle;resizable=0;points=[];" vertex="1" connectable="0" parent="65">
                    <mxGeometry x="-0.1845" y="-1" relative="1" as="geometry">
                        <mxPoint as="offset"/>
                    </mxGeometry>
                </mxCell>
                <mxCell id="124" value="Отпуск" style="edgeLabel;html=1;align=center;verticalAlign=middle;resizable=0;points=[];" vertex="1" connectable="0" parent="65">
                    <mxGeometry x="-0.0561" y="1" relative="1" as="geometry">
                        <mxPoint y="-1" as="offset"/>
                    </mxGeometry>
                </mxCell>
                <mxCell id="66" value="" style="endArrow=classic;html=1;sketch=0;strokeColor=default;jumpStyle=arc;" edge="1" parent="1">
                    <mxGeometry width="50" height="50" relative="1" as="geometry">
                        <mxPoint x="1070" y="690" as="sourcePoint"/>
                        <mxPoint x="1110" y="690" as="targetPoint"/>
                    </mxGeometry>
                </mxCell>
                <mxCell id="67" value="" style="endArrow=classic;html=1;sketch=0;strokeColor=default;jumpStyle=arc;exitX=1;exitY=0.25;exitDx=0;exitDy=0;" edge="1" parent="1" source="17">
                    <mxGeometry width="50" height="50" relative="1" as="geometry">
                        <mxPoint x="1070" y="680" as="sourcePoint"/>
                        <mxPoint x="1110" y="675" as="targetPoint"/>
                    </mxGeometry>
                </mxCell>
                <mxCell id="70" value="" style="endArrow=classic;html=1;sketch=0;strokeColor=default;jumpStyle=arc;" edge="1" parent="1">
                    <mxGeometry width="50" height="50" relative="1" as="geometry">
                        <mxPoint x="1010" y="450" as="sourcePoint"/>
                        <mxPoint x="980" y="520" as="targetPoint"/>
                        <Array as="points">
                            <mxPoint x="1010" y="520"/>
                        </Array>
                    </mxGeometry>
                </mxCell>
                <mxCell id="73" value="" style="endArrow=classic;html=1;rounded=1;sketch=0;strokeColor=default;jumpStyle=arc;entryX=0.339;entryY=0.006;entryDx=0;entryDy=0;entryPerimeter=0;" edge="1" parent="1" target="2">
                    <mxGeometry width="50" height="50" relative="1" as="geometry">
                        <mxPoint x="430" y="380" as="sourcePoint"/>
                        <mxPoint x="430" y="490" as="targetPoint"/>
                    </mxGeometry>
                </mxCell>
                <mxCell id="74" value="Бюджет" style="text;html=1;strokeColor=none;fillColor=none;align=center;verticalAlign=middle;whiteSpace=wrap;rounded=0;" vertex="1" parent="1">
                    <mxGeometry x="340" y="430" width="60" height="30" as="geometry"/>
                </mxCell>
                <mxCell id="75" value="" style="endArrow=classic;html=1;rounded=1;sketch=0;strokeColor=default;jumpStyle=arc;exitX=0;exitY=0.5;exitDx=0;exitDy=0;entryX=0.425;entryY=1.036;entryDx=0;entryDy=0;entryPerimeter=0;" edge="1" parent="1" source="2" target="12">
                    <mxGeometry width="50" height="50" relative="1" as="geometry">
                        <mxPoint x="760" y="840" as="sourcePoint"/>
                        <mxPoint x="810" y="790" as="targetPoint"/>
                        <Array as="points">
                            <mxPoint x="330" y="525"/>
                            <mxPoint x="330" y="770"/>
                            <mxPoint x="330" y="1020"/>
                            <mxPoint x="1181" y="1020"/>
                        </Array>
                    </mxGeometry>
                </mxCell>
                <mxCell id="76" value="Залы для хранения" style="edgeLabel;html=1;align=center;verticalAlign=middle;resizable=0;points=[];" vertex="1" connectable="0" parent="75">
                    <mxGeometry x="0.7599" relative="1" as="geometry">
                        <mxPoint as="offset"/>
                    </mxGeometry>
                </mxCell>
                <mxCell id="82" value="Деньги для закупок" style="edgeLabel;html=1;align=center;verticalAlign=middle;resizable=0;points=[];" vertex="1" connectable="0" parent="75">
                    <mxGeometry x="0.5491" relative="1" as="geometry">
                        <mxPoint as="offset"/>
                    </mxGeometry>
                </mxCell>
                <mxCell id="80" value="" style="endArrow=none;html=1;rounded=1;sketch=0;strokeColor=default;jumpStyle=arc;entryX=0;entryY=0.25;entryDx=0;entryDy=0;" edge="1" parent="1" target="2">
                    <mxGeometry width="50" height="50" relative="1" as="geometry">
                        <mxPoint x="330" y="540" as="sourcePoint"/>
                        <mxPoint x="370" y="500" as="targetPoint"/>
                        <Array as="points">
                            <mxPoint x="330" y="510"/>
                        </Array>
                    </mxGeometry>
                </mxCell>
                <mxCell id="86" value="Инфрастуктура" style="text;html=1;strokeColor=none;fillColor=none;align=center;verticalAlign=middle;whiteSpace=wrap;rounded=0;" vertex="1" parent="1">
                    <mxGeometry x="320" y="385" width="60" height="30" as="geometry"/>
                </mxCell>
                <mxCell id="88" value="" style="endArrow=none;html=1;rounded=1;sketch=0;strokeColor=default;jumpStyle=arc;exitX=1.014;exitY=0.914;exitDx=0;exitDy=0;exitPerimeter=0;" edge="1" parent="1" source="5">
                    <mxGeometry width="50" height="50" relative="1" as="geometry">
                        <mxPoint x="680" y="780" as="sourcePoint"/>
                        <mxPoint x="750" y="750" as="targetPoint"/>
                        <Array as="points">
                            <mxPoint x="750" y="725"/>
                        </Array>
                    </mxGeometry>
                </mxCell>
                <mxCell id="90" value="" style="endArrow=none;html=1;rounded=1;sketch=0;strokeColor=default;jumpStyle=arc;exitX=1.01;exitY=0.628;exitDx=0;exitDy=0;exitPerimeter=0;" edge="1" parent="1" source="5">
                    <mxGeometry width="50" height="50" relative="1" as="geometry">
                        <mxPoint x="700" y="710" as="sourcePoint"/>
                        <mxPoint x="750" y="740" as="targetPoint"/>
                        <Array as="points">
                            <mxPoint x="750" y="708"/>
                        </Array>
                    </mxGeometry>
                </mxCell>
                <mxCell id="93" value="" style="endArrow=none;html=1;rounded=1;sketch=0;strokeColor=default;jumpStyle=arc;" edge="1" parent="1">
                    <mxGeometry width="50" height="50" relative="1" as="geometry">
                        <mxPoint x="430" y="470" as="sourcePoint"/>
                        <mxPoint x="400" y="440" as="targetPoint"/>
                        <Array as="points">
                            <mxPoint x="430" y="440"/>
                        </Array>
                    </mxGeometry>
                </mxCell>
                <mxCell id="94" value="" style="endArrow=none;html=1;rounded=1;sketch=0;strokeColor=default;jumpStyle=arc;" edge="1" parent="1">
                    <mxGeometry width="50" height="50" relative="1" as="geometry">
                        <mxPoint x="430" y="430" as="sourcePoint"/>
                        <mxPoint x="400" y="400" as="targetPoint"/>
                        <Array as="points">
                            <mxPoint x="430" y="400"/>
                        </Array>
                    </mxGeometry>
                </mxCell>
                <mxCell id="95" value="" style="endArrow=none;html=1;rounded=1;sketch=0;strokeColor=default;jumpStyle=arc;" edge="1" parent="1">
                    <mxGeometry width="50" height="50" relative="1" as="geometry">
                        <mxPoint x="430" y="400" as="sourcePoint"/>
                        <mxPoint x="400" y="370" as="targetPoint"/>
                        <Array as="points">
                            <mxPoint x="430" y="370"/>
                        </Array>
                    </mxGeometry>
                </mxCell>
                <mxCell id="97" value="" style="endArrow=classic;html=1;rounded=1;sketch=0;strokeColor=default;jumpStyle=arc;entryX=0.942;entryY=0.02;entryDx=0;entryDy=0;entryPerimeter=0;" edge="1" parent="1" target="5">
                    <mxGeometry width="50" height="50" relative="1" as="geometry">
                        <mxPoint x="673" y="410" as="sourcePoint"/>
                        <mxPoint x="650" y="520" as="targetPoint"/>
                    </mxGeometry>
                </mxCell>
                <mxCell id="99" value="Документы" style="edgeLabel;html=1;align=center;verticalAlign=middle;resizable=0;points=[];" vertex="1" connectable="0" parent="97">
                    <mxGeometry x="-0.8835" y="-1" relative="1" as="geometry">
                        <mxPoint as="offset"/>
                    </mxGeometry>
                </mxCell>
                <mxCell id="102" value="Федеральный закон о &quot;библиотечном деле&quot;" style="text;html=1;strokeColor=none;fillColor=none;align=center;verticalAlign=middle;whiteSpace=wrap;rounded=0;" vertex="1" parent="1">
                    <mxGeometry x="270" y="355" width="130" height="30" as="geometry"/>
                </mxCell>
                <mxCell id="105" value="" style="endArrow=classic;html=1;rounded=1;sketch=0;strokeColor=default;jumpStyle=arc;entryX=1;entryY=0.5;entryDx=0;entryDy=0;" edge="1" parent="1" target="12">
                    <mxGeometry width="50" height="50" relative="1" as="geometry">
                        <mxPoint x="1360" y="900" as="sourcePoint"/>
                        <mxPoint x="1360" y="840" as="targetPoint"/>
                        <Array as="points">
                            <mxPoint x="1320" y="900"/>
                        </Array>
                    </mxGeometry>
                </mxCell>
                <mxCell id="110" value="Литература" style="edgeLabel;html=1;align=center;verticalAlign=middle;resizable=0;points=[];" vertex="1" connectable="0" parent="105">
                    <mxGeometry x="-0.0167" y="-3" relative="1" as="geometry">
                        <mxPoint as="offset"/>
                    </mxGeometry>
                </mxCell>
                <mxCell id="107" value="Поставщики" style="text;html=1;strokeColor=none;fillColor=none;align=center;verticalAlign=middle;whiteSpace=wrap;rounded=0;" vertex="1" parent="1">
                    <mxGeometry x="1370" y="885" width="60" height="30" as="geometry"/>
                </mxCell>
                <mxCell id="111" value="" style="endArrow=classic;html=1;rounded=1;sketch=0;strokeColor=default;jumpStyle=arc;" edge="1" parent="1">
                    <mxGeometry width="50" height="50" relative="1" as="geometry">
                        <mxPoint x="1235" y="930" as="sourcePoint"/>
                        <mxPoint x="1380" y="920" as="targetPoint"/>
                        <Array as="points">
                            <mxPoint x="1235" y="970"/>
                            <mxPoint x="1380" y="970"/>
                        </Array>
                    </mxGeometry>
                </mxCell>
                <mxCell id="113" value="Заказы" style="edgeLabel;html=1;align=center;verticalAlign=middle;resizable=0;points=[];" vertex="1" connectable="0" parent="111">
                    <mxGeometry x="-0.2809" y="2" relative="1" as="geometry">
                        <mxPoint as="offset"/>
                    </mxGeometry>
                </mxCell>
                <mxCell id="114" value="Оплата" style="edgeLabel;html=1;align=center;verticalAlign=middle;resizable=0;points=[];" vertex="1" connectable="0" parent="111">
                    <mxGeometry x="0.2054" y="2" relative="1" as="geometry">
                        <mxPoint as="offset"/>
                    </mxGeometry>
                </mxCell>
                <mxCell id="112" value="" style="endArrow=none;html=1;rounded=1;sketch=0;strokeColor=default;jumpStyle=arc;" edge="1" parent="1">
                    <mxGeometry width="50" height="50" relative="1" as="geometry">
                        <mxPoint x="1260" y="970" as="sourcePoint"/>
                        <mxPoint x="1210" y="930" as="targetPoint"/>
                        <Array as="points">
                            <mxPoint x="1210" y="970"/>
                        </Array>
                    </mxGeometry>
                </mxCell>
                <mxCell id="118" value="" style="endArrow=none;html=1;rounded=1;sketch=0;strokeColor=default;jumpStyle=arc;" edge="1" parent="1">
                    <mxGeometry width="50" height="50" relative="1" as="geometry">
                        <mxPoint x="430" y="405" as="sourcePoint"/>
                        <mxPoint x="430" y="330" as="targetPoint"/>
                    </mxGeometry>
                </mxCell>
                <mxCell id="119" value="Авторское право" style="text;html=1;strokeColor=none;fillColor=none;align=center;verticalAlign=middle;whiteSpace=wrap;rounded=0;" vertex="1" parent="1">
                    <mxGeometry x="400" y="300" width="60" height="30" as="geometry"/>
                </mxCell>
                <mxCell id="122" value="Кадровая политика" style="text;html=1;strokeColor=none;fillColor=none;align=center;verticalAlign=middle;whiteSpace=wrap;rounded=0;" vertex="1" parent="1">
                    <mxGeometry x="460" y="355" width="60" height="30" as="geometry"/>
                </mxCell>
                <mxCell id="123" value="" style="endArrow=none;html=1;rounded=1;sketch=0;strokeColor=default;jumpStyle=arc;" edge="1" parent="1">
                    <mxGeometry width="50" height="50" relative="1" as="geometry">
                        <mxPoint x="430" y="410" as="sourcePoint"/>
                        <mxPoint x="460" y="370" as="targetPoint"/>
                        <Array as="points">
                            <mxPoint x="430" y="370"/>
                        </Array>
                    </mxGeometry>
                </mxCell>
                <mxCell id="125" value="" style="endArrow=classic;html=1;rounded=1;sketch=0;strokeColor=default;jumpStyle=arc;exitX=1;exitY=0.25;exitDx=0;exitDy=0;entryX=0.003;entryY=0.352;entryDx=0;entryDy=0;entryPerimeter=0;" edge="1" parent="1" source="2" target="17">
                    <mxGeometry width="50" height="50" relative="1" as="geometry">
                        <mxPoint x="700" y="570" as="sourcePoint"/>
                        <mxPoint x="940" y="680" as="targetPoint"/>
                        <Array as="points">
                            <mxPoint x="830" y="510"/>
                            <mxPoint x="830" y="650"/>
                        </Array>
                    </mxGeometry>
                </mxCell>
                <mxCell id="126" value="Правила&lt;br&gt;Обслуживания" style="edgeLabel;html=1;align=center;verticalAlign=middle;resizable=0;points=[];" vertex="1" connectable="0" parent="125">
                    <mxGeometry x="-0.3625" y="2" relative="1" as="geometry">
                        <mxPoint x="50" y="7" as="offset"/>
                    </mxGeometry>
                </mxCell>
                <mxCell id="127" value="" style="endArrow=classic;html=1;rounded=1;sketch=0;strokeColor=default;jumpStyle=arc;entryX=0;entryY=0.5;entryDx=0;entryDy=0;exitX=0.582;exitY=0.991;exitDx=0;exitDy=0;exitPerimeter=0;" edge="1" parent="1" source="2" target="5">
                    <mxGeometry width="50" height="50" relative="1" as="geometry">
                        <mxPoint x="460" y="560" as="sourcePoint"/>
                        <mxPoint x="510" y="570" as="targetPoint"/>
                        <Array as="points">
                            <mxPoint x="460" y="700"/>
                        </Array>
                    </mxGeometry>
                </mxCell>
                <mxCell id="128" value="Фонд&lt;br&gt;Зарплат" style="edgeLabel;html=1;align=center;verticalAlign=middle;resizable=0;points=[];" vertex="1" connectable="0" parent="127">
                    <mxGeometry x="-0.7047" y="-1" relative="1" as="geometry">
                        <mxPoint as="offset"/>
                    </mxGeometry>
                </mxCell>
                <mxCell id="129" value="" style="endArrow=classic;html=1;rounded=1;sketch=0;strokeColor=default;jumpStyle=arc;exitX=0;exitY=0.5;exitDx=0;exitDy=0;entryX=1.028;entryY=0.631;entryDx=0;entryDy=0;entryPerimeter=0;" edge="1" parent="1" source="17" target="2">
                    <mxGeometry width="50" height="50" relative="1" as="geometry">
                        <mxPoint x="780" y="710" as="sourcePoint"/>
                        <mxPoint x="720" y="620" as="targetPoint"/>
                        <Array as="points">
                            <mxPoint x="810" y="660"/>
                            <mxPoint x="810" y="533"/>
                        </Array>
                    </mxGeometry>
                </mxCell>
                <mxCell id="130" value="Отчётность о&lt;br&gt;клиентах" style="edgeLabel;html=1;align=center;verticalAlign=middle;resizable=0;points=[];" vertex="1" connectable="0" parent="129">
                    <mxGeometry x="-0.1405" y="2" relative="1" as="geometry">
                        <mxPoint x="-28" y="15" as="offset"/>
                    </mxGeometry>
                </mxCell>
                <mxCell id="132" value="&lt;h1&gt;Взаимодействие отделов&lt;/h1&gt;" style="text;html=1;strokeColor=none;fillColor=none;spacing=5;spacingTop=-20;whiteSpace=wrap;overflow=hidden;rounded=0;" vertex="1" parent="1">
                    <mxGeometry x="750" y="310" width="340" height="40" as="geometry"/>
                </mxCell>
            </root>
        </mxGraphModel>
    </diagram>
</mxfile>